<svg width="53" height="54" viewBox="0 0 53 54" fill="none" xmlns="http://www.w3.org/2000/svg">
<path d="M16.0242 53.25C14.5804 53.25 13.3445 52.7359 12.3164 51.7078C11.2882 50.6797 10.7742 49.4437 10.7742 48C10.7742 46.5562 11.2882 45.3203 12.3164 44.2922C13.3445 43.2641 14.5804 42.75 16.0242 42.75C17.4679 42.75 18.7039 43.2641 19.732 44.2922C20.7601 45.3203 21.2742 46.5562 21.2742 48C21.2742 49.4437 20.7601 50.6797 19.732 51.7078C18.7039 52.7359 17.4679 53.25 16.0242 53.25ZM42.2742 53.25C40.8304 53.25 39.5945 52.7359 38.5664 51.7078C37.5382 50.6797 37.0242 49.4437 37.0242 48C37.0242 46.5562 37.5382 45.3203 38.5664 44.2922C39.5945 43.2641 40.8304 42.75 42.2742 42.75C43.7179 42.75 44.9539 43.2641 45.982 44.2922C47.0101 45.3203 47.5242 46.5562 47.5242 48C47.5242 49.4437 47.0101 50.6797 45.982 51.7078C44.9539 52.7359 43.7179 53.25 42.2742 53.25ZM13.7929 11.25L20.0929 24.375H38.4679L45.6867 11.25H13.7929ZM11.2992 6H50.0179C51.0242 6 51.7898 6.44844 52.3148 7.34531C52.8398 8.24219 52.8617 9.15 52.3804 10.0687L43.0617 26.8687C42.5804 27.7437 41.9351 28.4219 41.1257 28.9031C40.3164 29.3844 39.4304 29.625 38.4679 29.625H18.9117L16.0242 34.875H47.5242V40.125H16.0242C14.0554 40.125 12.5679 39.2609 11.5617 37.5328C10.5554 35.8047 10.5117 34.0875 11.4304 32.3812L14.9742 25.95L5.52417 6H0.27417V0.75H8.80542L11.2992 6Z" fill="#8B8B8B"/>
</svg>
