<svg width="40" height="60" viewBox="0 0 40 60" fill="none" xmlns="http://www.w3.org/2000/svg">
<path d="M12.8571 60C9.28571 60 6.25 58.6875 3.75 56.0625C1.25 53.4375 0 50.25 0 46.5C0 44.75 0.404762 43.1375 1.21429 41.6625C2.02381 40.1875 3.52381 38.3 5.71429 36C6 35.7 6.27381 35.3875 6.53571 35.0625C6.79762 34.7375 7.14286 34.3 7.57143 33.75C5.14286 29.85 3.27381 25.7625 1.96429 21.4875C0.654762 17.2125 0 13.05 0 9C0 6.1 0.5 3.875 1.5 2.325C2.5 0.775 3.90476 0 5.71429 0C8.42857 0 10.8571 1.375 13 4.125C15.1429 6.875 16.7619 9.4 17.8571 11.7C18.2857 12.7 18.6786 13.7125 19.0357 14.7375C19.3929 15.7625 19.7143 16.825 20 17.925C20.2857 16.825 20.6071 15.7625 20.9643 14.7375C21.3214 13.7125 21.7381 12.7 22.2143 11.7C23.2619 9.4 24.8571 6.875 27 4.125C29.1429 1.375 31.5714 0 34.2857 0C36.0952 0 37.5 0.775 38.5 2.325C39.5 3.875 40 6.1 40 9C40 13.05 39.3452 17.2125 38.0357 21.4875C36.7262 25.7625 34.8571 29.85 32.4286 33.75C32.8571 34.3 33.2024 34.7375 33.4643 35.0625C33.7262 35.3875 34 35.7 34.2857 36C36.4762 38.3 37.9762 40.1875 38.7857 41.6625C39.5952 43.1375 40 44.75 40 46.5C40 50.25 38.75 53.4375 36.25 56.0625C33.75 58.6875 30.7143 60 27.1429 60C25 60 23.2738 59.75 21.9643 59.25L20 58.5L18.0357 59.25C16.7262 59.75 15 60 12.8571 60ZM12.8571 54C13.9524 54 15.0476 53.8625 16.1429 53.5875C17.2381 53.3125 18.2619 52.9 19.2143 52.35C18.6905 52.1 18.2143 51.675 17.7857 51.075C17.3571 50.475 17.1429 49.95 17.1429 49.5C17.1429 49.1 17.4167 48.75 17.9643 48.45C18.5119 48.15 19.1905 48 20 48C20.8095 48 21.4881 48.15 22.0357 48.45C22.5833 48.75 22.8571 49.1 22.8571 49.5C22.8571 49.95 22.6429 50.475 22.2143 51.075C21.7857 51.675 21.3095 52.1 20.7857 52.35C21.7381 52.9 22.7619 53.3125 23.8571 53.5875C24.9524 53.8625 26.0476 54 27.1429 54C29.1429 54 30.8333 53.275 32.2143 51.825C33.5952 50.375 34.2857 48.6 34.2857 46.5C34.2857 45.6 34.0476 44.725 33.5714 43.875C33.0952 43.025 32.381 42.175 31.4286 41.325C30.7619 40.725 30.2143 40.2 29.7857 39.75C29.3571 39.3 28.6667 38.45 27.7143 37.2C26.3333 35.45 25.1905 34.3125 24.2857 33.7875C23.381 33.2625 21.9524 33 20 33C18.0476 33 16.6071 33.2625 15.6786 33.7875C14.75 34.3125 13.619 35.45 12.2857 37.2C11.3333 38.45 10.6429 39.3 10.2143 39.75C9.78571 40.2 9.2381 40.725 8.57143 41.325C7.61905 42.175 6.90476 43.025 6.42857 43.875C5.95238 44.725 5.71429 45.6 5.71429 46.5C5.71429 48.6 6.40476 50.375 7.78571 51.825C9.16667 53.275 10.8571 54 12.8571 54ZM15.7143 44.25C15.3333 44.25 15 44.025 14.7143 43.575C14.4286 43.125 14.2857 42.6 14.2857 42C14.2857 41.4 14.4286 40.875 14.7143 40.425C15 39.975 15.3333 39.75 15.7143 39.75C16.0952 39.75 16.4286 39.975 16.7143 40.425C17 40.875 17.1429 41.4 17.1429 42C17.1429 42.6 17 43.125 16.7143 43.575C16.4286 44.025 16.0952 44.25 15.7143 44.25ZM24.2857 44.25C23.9048 44.25 23.5714 44.025 23.2857 43.575C23 43.125 22.8571 42.6 22.8571 42C22.8571 41.4 23 40.875 23.2857 40.425C23.5714 39.975 23.9048 39.75 24.2857 39.75C24.6667 39.75 25 39.975 25.2857 40.425C25.5714 40.875 25.7143 41.4 25.7143 42C25.7143 42.6 25.5714 43.125 25.2857 43.575C25 44.025 24.6667 44.25 24.2857 44.25ZM11.6429 29.325C12.1667 28.925 12.7619 28.575 13.4286 28.275C14.0952 27.975 14.8333 27.7 15.6429 27.45C15.5476 25.05 15.2024 22.6625 14.6071 20.2875C14.0119 17.9125 13.2619 15.75 12.3571 13.8C11.4524 11.8 10.4524 10.1125 9.35714 8.7375C8.26191 7.3625 7.16667 6.475 6.07143 6.075C5.97619 6.375 5.89286 6.7625 5.82143 7.2375C5.75 7.7125 5.71429 8.3 5.71429 9C5.71429 12.4 6.22619 15.85 7.25 19.35C8.27381 22.85 9.7381 26.175 11.6429 29.325ZM28.3571 29.325C30.2619 26.175 31.7262 22.85 32.75 19.35C33.7738 15.85 34.2857 12.4 34.2857 9C34.2857 8.3 34.25 7.7125 34.1786 7.2375C34.1071 6.7625 34.0238 6.375 33.9286 6.075C32.8333 6.475 31.7381 7.3625 30.6429 8.7375C29.5476 10.1125 28.5476 11.8 27.6429 13.8C26.7857 15.75 26.0595 17.9125 25.4643 20.2875C24.869 22.6625 24.5 25.05 24.3571 27.45C25.0714 27.65 25.7619 27.9125 26.4286 28.2375C27.0952 28.5625 27.7381 28.925 28.3571 29.325Z" fill="#8B8B8B"/>
</svg>
