<svg width="144" height="22" viewBox="0 0 144 22" fill="none" xmlns="http://www.w3.org/2000/svg">
<path d="M9.49259 2.32635C10.0658 0.432004 12.7479 0.432002 13.3212 2.32635L14.378 5.81891C14.6333 6.66259 15.4108 7.23967 16.2922 7.23967H19.9987C21.9015 7.23967 22.7292 9.64611 21.2289 10.8166L17.991 13.3426C17.3395 13.851 17.0676 14.7077 17.307 15.4988L18.4851 19.3921C19.0503 21.2601 16.8793 22.7487 15.3406 21.5483L12.6371 19.4391C11.914 18.875 10.8998 18.875 10.1767 19.4391L7.47317 21.5483C5.93444 22.7487 3.76344 21.2601 4.32867 19.3921L5.50676 15.4988C5.74611 14.7077 5.47429 13.851 4.8227 13.3426L1.5848 10.8166C0.0845424 9.64611 0.912204 7.23967 2.81502 7.23967H6.52149C7.40295 7.23967 8.18049 6.66259 8.43578 5.81891L9.49259 2.32635Z" fill="#8B8B8B"/>
<path d="M39.7892 2.32635C40.3624 0.432006 43.0445 0.432005 43.6177 2.32635L44.6745 5.81891C44.9298 6.66259 45.7073 7.23967 46.5888 7.23967H50.2953C52.1981 7.23967 53.0258 9.64611 51.5255 10.8166L48.2876 13.3426C47.636 13.851 47.3642 14.7077 47.6035 15.4988L48.7816 19.3921C49.3469 21.2601 47.1759 22.7487 45.6371 21.5483L42.9337 19.4391C42.2105 18.875 41.1963 18.875 40.4732 19.4391L37.7697 21.5483C36.231 22.7487 34.06 21.2601 34.6252 19.3921L35.8033 15.4988C36.0427 14.7077 35.7709 13.851 35.1193 13.3426L31.8814 10.8166C30.3811 9.64611 31.2088 7.23967 33.1116 7.23967H36.8181C37.6995 7.23967 38.4771 6.66259 38.7323 5.81891L39.7892 2.32635Z" fill="#8B8B8B"/>
<path d="M70.0857 2.32635C70.6589 0.432004 73.3411 0.432003 73.9143 2.32635L74.9711 5.81891C75.2264 6.66259 76.0039 7.23967 76.8854 7.23967H80.5918C82.4947 7.23967 83.3223 9.64611 81.8221 10.8166L78.5842 13.3426C77.9326 13.851 77.6608 14.7077 77.9001 15.4988L79.0782 19.3921C79.6434 21.2601 77.4724 22.7487 75.9337 21.5483L73.2302 19.4391C72.5071 18.875 71.4929 18.875 70.7698 19.4391L68.0663 21.5483C66.5276 22.7487 64.3566 21.2601 64.9218 19.3921L66.0999 15.4988C66.3392 14.7077 66.0674 13.851 65.4158 13.3426L62.1779 10.8166C60.6777 9.64611 61.5053 7.23967 63.4081 7.23967H67.1146C67.9961 7.23967 68.7736 6.66259 69.0289 5.81891L70.0857 2.32635Z" fill="#8B8B8B"/>
<path d="M100.382 2.32634C100.955 0.431992 103.638 0.431992 104.211 2.32634L105.268 5.81891C105.523 6.66259 106.3 7.23967 107.182 7.23967H110.888C112.791 7.23967 113.619 9.64611 112.119 10.8166L108.881 13.3426C108.229 13.851 107.957 14.7077 108.197 15.4988L109.375 19.3921C109.94 21.2601 107.769 22.7487 106.23 21.5483L103.527 19.4391C102.804 18.875 101.789 18.875 101.066 19.4391L98.3629 21.5483C96.8241 22.7487 94.6531 21.2601 95.2184 19.3921L96.3965 15.4988C96.6358 14.7077 96.364 13.851 95.7124 13.3426L92.4745 10.8166C90.9742 9.64611 91.8019 7.23967 93.7047 7.23967H97.4112C98.2926 7.23967 99.0702 6.66259 99.3255 5.81891L100.382 2.32634Z" fill="#8B8B8B"/>
<path d="M130.679 2.32634C131.252 0.431992 133.934 0.431992 134.507 2.32634L135.564 5.81891C135.82 6.66259 136.597 7.23967 137.479 7.23967H141.185C143.088 7.23967 143.915 9.64611 142.415 10.8166L139.177 13.3426C138.526 13.851 138.254 14.7077 138.493 15.4988L139.671 19.3921C140.237 21.2601 138.066 22.7487 136.527 21.5483L133.823 19.4391C133.1 18.875 132.086 18.875 131.363 19.4391L128.659 21.5483C127.121 22.7487 124.95 21.2601 125.515 19.3921L126.693 15.4988C126.932 14.7077 126.661 13.851 126.009 13.3426L122.771 10.8166C121.271 9.64611 122.098 7.23967 124.001 7.23967H127.708C128.589 7.23967 129.367 6.66259 129.622 5.81891L130.679 2.32634Z" fill="#8B8B8B"/>
</svg>
