<svg width="40" height="30" viewBox="0 0 40 30" fill="none" xmlns="http://www.w3.org/2000/svg">
<path d="M1.58333 16.2632C1.08333 15.3158 0.694444 14.3553 0.416667 13.3816C0.138889 12.4079 0 11.4211 0 10.4211C0 7.47368 1.05556 5 3.16667 3C5.27778 1 7.88889 0 11 0C12.75 0 14.4167 0.348684 16 1.04605C17.5833 1.74342 18.9167 2.71053 20 3.94737C21.0833 2.71053 22.4167 1.74342 24 1.04605C25.5833 0.348684 27.25 0 29 0C32.1111 0 34.7222 1 36.8333 3C38.9444 5 40 7.47368 40 10.4211C40 11.4211 39.8611 12.4079 39.5833 13.3816C39.3056 14.3553 38.9167 15.3158 38.4167 16.2632C38.1111 15.7632 37.75 15.3158 37.3333 14.9211C36.9167 14.5263 36.4306 14.2105 35.875 13.9737C36.125 13.3684 36.3194 12.7763 36.4583 12.1974C36.5972 11.6184 36.6667 11.0263 36.6667 10.4211C36.6667 8.36842 35.9306 6.64474 34.4583 5.25C32.9861 3.85526 31.1667 3.15789 29 3.15789C26.75 3.15789 25.0208 3.74342 23.8125 4.91447C22.6042 6.08553 21.3333 7.39474 20 8.8421C18.6667 7.36842 17.3958 6.05263 16.1875 4.89474C14.9792 3.73684 13.25 3.15789 11 3.15789C8.83333 3.15789 7.01389 3.85526 5.54167 5.25C4.06944 6.64474 3.33333 8.36842 3.33333 10.4211C3.33333 11.0263 3.40278 11.6184 3.54167 12.1974C3.68056 12.7763 3.875 13.3684 4.125 13.9737C3.56944 14.2105 3.08333 14.5263 2.66667 14.9211C2.25 15.3158 1.88889 15.7632 1.58333 16.2632ZM0 30V27.5132C0 26.3553 0.618056 25.4276 1.85417 24.7303C3.09028 24.0329 4.69444 23.6842 6.66667 23.6842C7.02778 23.6842 7.375 23.6908 7.70833 23.7039C8.04167 23.7171 8.36111 23.75 8.66667 23.8026C8.27778 24.3289 7.98611 24.8947 7.79167 25.5C7.59722 26.1053 7.5 26.75 7.5 27.4342V30H0ZM10 30V27.4342C10 25.7237 10.9236 24.3421 12.7708 23.2895C14.6181 22.2368 17.0278 21.7105 20 21.7105C23 21.7105 25.4167 22.2368 27.25 23.2895C29.0833 24.3421 30 25.7237 30 27.4342V30H10ZM32.5 30V27.4342C32.5 26.75 32.4097 26.1053 32.2292 25.5C32.0486 24.8947 31.7778 24.3289 31.4167 23.8026C31.7222 23.75 32.0347 23.7171 32.3542 23.7039C32.6736 23.6908 33 23.6842 33.3333 23.6842C35.3333 23.6842 36.9444 24.0329 38.1667 24.7303C39.3889 25.4276 40 26.3553 40 27.5132V30H32.5ZM20 24.8684C18.4167 24.8684 17 25.0658 15.75 25.4605C14.5 25.8553 13.7639 26.3158 13.5417 26.8421H26.5C26.25 26.3158 25.5069 25.8553 24.2708 25.4605C23.0347 25.0658 21.6111 24.8684 20 24.8684ZM6.66667 22.1053C5.75 22.1053 4.96528 21.7961 4.3125 21.1776C3.65972 20.5592 3.33333 19.8158 3.33333 18.9474C3.33333 18.0526 3.65972 17.3026 4.3125 16.6974C4.96528 16.0921 5.75 15.7895 6.66667 15.7895C7.61111 15.7895 8.40278 16.0921 9.04167 16.6974C9.68056 17.3026 10 18.0526 10 18.9474C10 19.8158 9.68056 20.5592 9.04167 21.1776C8.40278 21.7961 7.61111 22.1053 6.66667 22.1053ZM33.3333 22.1053C32.4167 22.1053 31.6319 21.7961 30.9792 21.1776C30.3264 20.5592 30 19.8158 30 18.9474C30 18.0526 30.3264 17.3026 30.9792 16.6974C31.6319 16.0921 32.4167 15.7895 33.3333 15.7895C34.2778 15.7895 35.0694 16.0921 35.7083 16.6974C36.3472 17.3026 36.6667 18.0526 36.6667 18.9474C36.6667 19.8158 36.3472 20.5592 35.7083 21.1776C35.0694 21.7961 34.2778 22.1053 33.3333 22.1053ZM20 20.5263C18.6111 20.5263 17.4306 20.0658 16.4583 19.1447C15.4861 18.2237 15 17.1053 15 15.7895C15 14.4474 15.4861 13.3224 16.4583 12.4145C17.4306 11.5066 18.6111 11.0526 20 11.0526C21.4167 11.0526 22.6042 11.5066 23.5625 12.4145C24.5208 13.3224 25 14.4474 25 15.7895C25 17.1053 24.5208 18.2237 23.5625 19.1447C22.6042 20.0658 21.4167 20.5263 20 20.5263ZM20 14.2105C19.5278 14.2105 19.1319 14.3618 18.8125 14.6645C18.4931 14.9671 18.3333 15.3421 18.3333 15.7895C18.3333 16.2368 18.4931 16.6118 18.8125 16.9145C19.1319 17.2171 19.5278 17.3684 20 17.3684C20.4722 17.3684 20.8681 17.2171 21.1875 16.9145C21.5069 16.6118 21.6667 16.2368 21.6667 15.7895C21.6667 15.3421 21.5069 14.9671 21.1875 14.6645C20.8681 14.3618 20.4722 14.2105 20 14.2105Z" fill="#8B8B8B"/>
</svg>
