<svg width="40" height="35" viewBox="0 0 40 35" fill="none" xmlns="http://www.w3.org/2000/svg">
<path d="M15.5988 12L19.8314 5.875L17.0255 1.79167C16.6451 1.23611 16.0981 0.958333 15.3848 0.958333C14.6714 0.958333 14.1245 1.23611 13.7441 1.79167L9.08344 8.58333L15.5988 12ZM34.0035 23.3333L29.7709 17.1667L36.3813 13.8333L39.425 18.2917C39.7737 18.7639 39.964 19.2917 39.9957 19.875C40.0274 20.4583 39.8847 21 39.5677 21.5C39.2506 22.0556 38.783 22.5 38.1647 22.8333C37.5465 23.1667 36.8727 23.3333 36.1435 23.3333H34.0035ZM28.5344 35L20.9252 28.3333L28.5344 21.6667V25H37.5703L34.8119 29.8333C34.4632 30.3889 33.9876 30.8333 33.3852 31.1667C32.7828 31.5 32.117 31.6667 31.3878 31.6667H28.5344V35ZM10.1297 31.6667C9.4956 31.6667 8.91699 31.5208 8.39386 31.2292C7.87073 30.9375 7.48235 30.5556 7.22871 30.0833C6.97507 29.6389 6.85618 29.1736 6.87203 28.6875C6.88788 28.2014 7.03848 27.75 7.32382 27.3333L8.94077 25H17.1206V31.6667H10.1297ZM5.42153 26.9167L2.33031 21.5C2.04496 21 1.91022 20.4653 1.92607 19.8958C1.94192 19.3264 2.12423 18.7917 2.47298 18.2917L3.2339 17.1667L0 15.4583L10.415 13.1667L13.0307 22.3333L9.74924 20.5833L5.42153 26.9167ZM31.1025 12.6667L20.6874 10.375L23.9689 8.66667L18.0242 0H24.7298C25.3956 0 26.0218 0.145833 26.6083 0.4375C27.1948 0.729167 27.6625 1.125 28.0112 1.625L30.4842 5.25L33.7181 3.5L31.1025 12.6667Z" fill="#8B8B8B"/>
</svg>
