<svg width="267" height="31" fill="none" xmlns="http://www.w3.org/2000/svg"><path d="M23.2 10.2c-.773-1.627-1.893-2.88-3.36-3.76-1.467-.907-3.173-1.36-5.12-1.36s-3.707.453-5.28 1.36c-1.547.88-2.773 2.16-3.68 3.84-.88 1.653-1.32 3.573-1.32 5.76s.44 4.107 1.32 5.76c.907 1.653 2.133 2.933 3.68 3.84 1.573.88 3.333 1.32 5.28 1.32 2.72 0 4.96-.813 6.72-2.44 1.76-1.627 2.787-3.827 3.08-6.6H13.4v-2.96h15v2.8a13.974 13.974 0 0 1-2.16 6.32 13.58 13.58 0 0 1-4.84 4.52c-2 1.093-4.227 1.64-6.68 1.64-2.587 0-4.947-.6-7.08-1.8-2.133-1.227-3.827-2.92-5.08-5.08C1.333 21.2.72 18.76.72 16.04c0-2.72.613-5.16 1.84-7.32 1.253-2.187 2.947-3.88 5.08-5.08 2.133-1.227 4.493-1.84 7.08-1.84 2.96 0 5.573.733 7.84 2.2 2.293 1.467 3.96 3.533 5 6.2H23.2Zm13.653 1.44c.64-1.253 1.547-2.227 2.72-2.92 1.2-.693 2.653-1.04 4.36-1.04v3.76h-.96c-4.08 0-6.12 2.213-6.12 6.64V30h-3.64V8.08h3.64v3.56Zm9.922 7.32c0-2.24.453-4.2 1.36-5.88.906-1.707 2.146-3.027 3.72-3.96 1.6-.933 3.373-1.4 5.32-1.4 1.92 0 3.586.413 5 1.24 1.413.827 2.466 1.867 3.16 3.12v-4h3.68V30h-3.68v-4.08c-.72 1.28-1.8 2.347-3.24 3.2-1.414.827-3.067 1.24-4.96 1.24-1.947 0-3.707-.48-5.28-1.44-1.574-.96-2.814-2.307-3.72-4.04-.907-1.733-1.36-3.707-1.36-5.92Zm18.56.04c0-1.653-.334-3.093-1-4.32-.667-1.227-1.574-2.16-2.72-2.8-1.12-.667-2.36-1-3.72-1-1.36 0-2.6.32-3.72.96-1.12.64-2.014 1.573-2.68 2.8-.667 1.227-1 2.667-1 4.32 0 1.68.333 3.147 1 4.4.666 1.227 1.56 2.173 2.68 2.84 1.12.64 2.36.96 3.72.96 1.36 0 2.6-.32 3.72-.96 1.146-.667 2.053-1.613 2.72-2.84.666-1.253 1-2.707 1-4.36Zm8.47 0c0-2.267.454-4.24 1.36-5.92.908-1.707 2.16-3.027 3.76-3.96 1.628-.933 3.48-1.4 5.56-1.4 2.694 0 4.908.653 6.64 1.96 1.76 1.307 2.92 3.12 3.48 5.44h-3.92c-.372-1.333-1.106-2.387-2.2-3.16-1.066-.773-2.4-1.16-4-1.16-2.08 0-3.76.72-5.04 2.16-1.28 1.413-1.92 3.427-1.92 6.04 0 2.64.64 4.68 1.92 6.12 1.28 1.44 2.96 2.16 5.04 2.16 1.6 0 2.934-.373 4-1.12 1.068-.747 1.8-1.813 2.2-3.2h3.92c-.586 2.24-1.76 4.04-3.52 5.4-1.76 1.333-3.96 2-6.6 2-2.08 0-3.932-.467-5.56-1.4-1.6-.933-2.852-2.253-3.76-3.96-.906-1.707-1.36-3.707-1.36-6Zm45.658-.8c0 .693-.04 1.427-.12 2.2h-17.52c.133 2.16.866 3.853 2.2 5.08 1.36 1.2 3 1.8 4.92 1.8 1.573 0 2.88-.36 3.92-1.08a5.897 5.897 0 0 0 2.24-2.96h3.92c-.587 2.107-1.76 3.827-3.52 5.16-1.76 1.307-3.947 1.96-6.56 1.96-2.08 0-3.947-.467-5.6-1.4-1.627-.933-2.907-2.253-3.84-3.96-.933-1.733-1.4-3.733-1.4-6s.453-4.253 1.36-5.96c.906-1.707 2.173-3.013 3.8-3.92 1.653-.933 3.546-1.4 5.68-1.4 2.08 0 3.92.453 5.52 1.36a9.253 9.253 0 0 1 3.68 3.76c.88 1.573 1.32 3.36 1.32 5.36Zm-3.76-.76c0-1.387-.307-2.573-.92-3.56a5.798 5.798 0 0 0-2.52-2.28c-1.04-.533-2.2-.8-3.48-.8-1.84 0-3.414.587-4.72 1.76-1.28 1.173-2.014 2.8-2.2 4.88h13.84Zm36.775-1.4c0-2.72.613-5.16 1.84-7.32 1.226-2.187 2.893-3.893 5-5.12 2.133-1.227 4.493-1.84 7.08-1.84 3.04 0 5.693.733 7.96 2.2 2.266 1.467 3.92 3.547 4.96 6.24h-4.36c-.774-1.68-1.894-2.973-3.36-3.88-1.44-.907-3.174-1.36-5.2-1.36-1.947 0-3.694.453-5.24 1.36-1.547.907-2.76 2.2-3.64 3.88-.88 1.653-1.32 3.6-1.32 5.84 0 2.213.44 4.16 1.32 5.84.88 1.653 2.093 2.933 3.64 3.84 1.546.907 3.293 1.36 5.24 1.36 2.026 0 3.76-.44 5.2-1.32 1.466-.907 2.586-2.2 3.36-3.88h4.36c-1.04 2.667-2.694 4.733-4.96 6.2-2.267 1.44-4.92 2.16-7.96 2.16-2.587 0-4.947-.6-7.08-1.8-2.107-1.227-3.774-2.92-5-5.08-1.227-2.16-1.84-4.6-1.84-7.32ZM188.376.4V30h-3.64V.4h3.64Zm26.204 17.8c0 .693-.04 1.427-.12 2.2h-17.52c.133 2.16.867 3.853 2.2 5.08 1.36 1.2 3 1.8 4.92 1.8 1.573 0 2.88-.36 3.92-1.08a5.891 5.891 0 0 0 2.24-2.96h3.92c-.587 2.107-1.76 3.827-3.52 5.16-1.76 1.307-3.947 1.96-6.56 1.96-2.08 0-3.947-.467-5.6-1.4-1.627-.933-2.907-2.253-3.84-3.96-.933-1.733-1.4-3.733-1.4-6s.453-4.253 1.36-5.96c.907-1.707 2.173-3.013 3.8-3.92 1.653-.933 3.547-1.4 5.68-1.4 2.08 0 3.92.453 5.52 1.36 1.6.907 2.827 2.16 3.68 3.76.88 1.573 1.32 3.36 1.32 5.36Zm-3.76-.76c0-1.387-.307-2.573-.92-3.56a5.787 5.787 0 0 0-2.52-2.28c-1.04-.533-2.2-.8-3.48-.8-1.84 0-3.413.587-4.72 1.76-1.28 1.173-2.013 2.8-2.2 4.88h13.84Zm7.205 1.52c0-2.24.453-4.2 1.36-5.88.906-1.707 2.146-3.027 3.72-3.96 1.6-.933 3.373-1.4 5.32-1.4 1.92 0 3.586.413 5 1.24 1.413.827 2.466 1.867 3.16 3.12v-4h3.68V30h-3.68v-4.08c-.72 1.28-1.8 2.347-3.24 3.2-1.414.827-3.067 1.24-4.96 1.24-1.947 0-3.707-.48-5.28-1.44-1.574-.96-2.814-2.307-3.72-4.04-.907-1.733-1.36-3.707-1.36-5.92Zm18.56.04c0-1.653-.334-3.093-1-4.32-.667-1.227-1.574-2.16-2.72-2.8-1.12-.667-2.36-1-3.72-1-1.36 0-2.6.32-3.72.96-1.12.64-2.014 1.573-2.68 2.8-.667 1.227-1 2.667-1 4.32 0 1.68.333 3.147 1 4.4.666 1.227 1.56 2.173 2.68 2.84 1.12.64 2.36.96 3.72.96 1.36 0 2.6-.32 3.72-.96 1.146-.667 2.053-1.613 2.72-2.84.666-1.253 1-2.707 1-4.36Zm20.511-11.32c2.667 0 4.827.813 6.48 2.44 1.653 1.6 2.48 3.92 2.48 6.96V30h-3.6V17.6c0-2.187-.547-3.853-1.64-5-1.093-1.173-2.587-1.76-4.48-1.76-1.92 0-3.453.6-4.6 1.8-1.12 1.2-1.68 2.947-1.68 5.24V30h-3.64V8.08h3.64v3.12a7.255 7.255 0 0 1 2.92-2.6c1.253-.613 2.627-.92 4.12-.92Z" fill="#000"/><path d="m145.668 30-3.64-3.68c-1.36 1.413-2.814 2.467-4.36 3.16-1.547.667-3.294 1-5.24 1-1.92 0-3.627-.347-5.12-1.04-1.467-.693-2.614-1.68-3.44-2.96-.8-1.28-1.2-2.773-1.2-4.48 0-1.947.546-3.653 1.64-5.12 1.12-1.493 2.76-2.667 4.92-3.52-.854-1.013-1.467-1.947-1.84-2.8-.374-.853-.56-1.787-.56-2.8 0-1.173.293-2.227.88-3.16.613-.96 1.48-1.707 2.6-2.24 1.12-.533 2.413-.8 3.88-.8 1.44 0 2.693.28 3.76.84 1.066.56 1.866 1.347 2.4 2.36.533.987.773 2.093.72 3.32h-3.64c.026-1.093-.28-1.947-.92-2.56-.64-.64-1.467-.96-2.48-.96-1.067 0-1.934.307-2.6.92-.64.587-.96 1.347-.96 2.28 0 .8.213 1.573.64 2.32.453.747 1.2 1.667 2.24 2.76l8.32 8.36.72-1.12 2.72-4.56h3.92l-3.28 5.68c-.454.8-.987 1.64-1.6 2.52l6.28 6.28h-4.76Zm-13.24-2.64c1.44 0 2.733-.28 3.88-.84 1.173-.56 2.28-1.427 3.32-2.6l-8.2-8.24c-3.414 1.307-5.12 3.373-5.12 6.2 0 1.573.56 2.88 1.68 3.92 1.146 1.04 2.626 1.56 4.44 1.56Z" fill="#1A9A83"/></svg>